<svg width="40" height="40" viewBox="0 0 40 40" fill="none" xmlns="http://www.w3.org/2000/svg">
<path fill-rule="evenodd" clip-rule="evenodd" d="M18.2057 16.0152C18.0409 16.142 17.7999 16.0533 17.7576 15.8503C17.4406 14.3031 16.6754 12.925 15.6016 11.847C14.1727 10.4181 12.1943 9.53033 10.0129 9.53033C7.83159 9.53033 5.85738 10.4139 4.42428 11.847C2.99541 13.2758 2.10764 15.2543 2.10764 17.4356C2.10764 19.617 2.58957 20.5428 3.41815 21.7941C3.64643 22.1408 4.12413 22.2253 4.45387 21.9674L6.48727 20.3864C6.77473 20.1623 6.8466 19.765 6.65637 19.4521C6.30126 18.8645 6.09834 18.1712 6.09834 17.4356C6.09834 16.3534 6.538 15.3769 7.24398 14.6667C7.95419 13.9565 8.93073 13.521 10.0129 13.521C11.0952 13.521 12.0717 13.9607 12.7819 14.6667C13.4921 15.3769 13.9276 16.3534 13.9276 17.4356C13.9276 18.5179 13.7415 18.8011 13.416 19.3718C13.1243 19.8875 12.7608 20.2511 12.3549 20.5893L11.5433 21.2319L7.01147 24.7491L0.277164 29.9742C-0.259721 30.3885 0.0361998 31.2467 0.71259 31.2467H10.8796C11.036 31.2467 11.1882 31.1959 11.315 31.0987L15.0859 28.2071C15.4917 27.8943 15.2719 27.2475 14.7604 27.2475H11.3235C10.981 27.2475 10.8288 26.8121 11.1036 26.6007L14.6589 23.8402C14.6843 23.8233 14.7054 23.8022 14.7308 23.7852L19.6177 19.9721C20.1503 19.5578 21.4059 18.5348 21.9597 18.1628C23.5027 17.1313 25.5911 17.3342 26.9058 18.6489C28.2205 19.9636 28.4277 22.665 26.9058 24.1869C25.3839 25.7087 25.219 25.3325 24.1368 25.3325C23.0546 25.3325 22.0781 24.8928 21.3678 24.1869L21.3594 24.1784C21.1015 23.9248 20.6957 23.8994 20.4082 24.1234L18.3833 25.696C18.0578 25.9497 18.0113 26.4274 18.286 26.7318C18.3706 26.8248 18.4594 26.9178 18.5481 27.0108C19.977 28.4397 21.9555 29.3274 24.1368 29.3274C26.3182 29.3274 28.2924 28.4439 29.7255 27.0108C31.1544 25.5819 32.0421 23.6035 32.0421 21.4221C32.0421 19.2408 31.1586 17.2665 29.7255 15.8334C29.0914 15.1993 28.3473 14.6709 27.5314 14.282C27.3623 14.2016 27.337 13.9691 27.4849 13.8508L29.679 12.1471C29.8058 12.0499 29.958 11.9992 30.1144 11.9992H35.9271C36.0836 11.9992 36.2357 11.9484 36.3626 11.8512L39.7191 9.27669C40.2603 8.8624 39.9643 8 39.2837 8H28.7828C28.6264 8 28.4699 8.05073 28.3473 8.14796C24.9654 10.769 21.575 13.3858 18.2057 16.0152Z" fill="black"/>
<path fill-rule="evenodd" clip-rule="evenodd" d="M24.1198 24.7745C25.9841 24.7745 27.506 23.2527 27.506 21.3884C27.506 19.5241 25.9841 18.0022 24.1198 18.0022C22.2555 18.0022 20.7336 19.5241 20.7336 21.3884C20.7336 23.2527 22.2555 24.7745 24.1198 24.7745Z" fill="#FED301" stroke="black" stroke-width="0.0845487" stroke-miterlimit="10"/>
<path fill-rule="evenodd" clip-rule="evenodd" d="M24.1198 18.0022C25.1386 18.0022 26.056 18.4545 26.6774 19.169H21.5622C22.1837 18.4545 23.101 18.0022 24.1198 18.0022ZM27.4214 20.6317C27.4764 20.8769 27.506 21.1263 27.506 21.3884C27.506 21.6505 27.4806 21.8661 27.4299 22.0944H20.8097C20.7632 21.8661 20.7336 21.6293 20.7336 21.3884C20.7336 21.1474 20.7632 20.8769 20.8182 20.6317H27.4214ZM26.9268 23.2823C26.3942 24.0686 25.5402 24.6181 24.5552 24.745H23.6844C22.6994 24.6181 21.8455 24.0686 21.3128 23.2823H26.9268Z" fill="black"/>
<path fill-rule="evenodd" clip-rule="evenodd" d="M5.69665 30.3674L5.36268 29.8643C5.28236 29.746 5.09635 29.8009 5.09635 29.9446V30.2237C5.09635 30.304 5.03294 30.3674 4.95262 30.3674H4.59752C4.51719 30.3674 4.45378 30.304 4.45378 30.2237V29.9446C4.45378 29.8009 4.26778 29.746 4.18745 29.8643L3.89999 30.304C3.87462 30.3462 3.82812 30.3674 3.77739 30.3674H3.40538C3.28701 30.3674 3.21937 30.2363 3.28278 30.1391L3.72666 29.4796C3.76048 29.4289 3.76048 29.3655 3.72666 29.3148L3.31238 28.7229C3.24474 28.6257 3.31237 28.4946 3.43074 28.4946H3.81967C3.86617 28.4946 3.91267 28.52 3.94226 28.558L4.18745 28.9216C4.26778 29.04 4.45378 28.985 4.45378 28.8413V28.6426C4.45378 28.5623 4.51719 28.4989 4.59752 28.4989H4.95262C5.03294 28.4989 5.09635 28.5623 5.09635 28.6426V28.8413C5.09635 28.985 5.28236 29.04 5.36268 28.9216L5.60787 28.558C5.63324 28.52 5.67974 28.4946 5.73047 28.4946H6.11939C6.23776 28.4946 6.3054 28.6257 6.23776 28.7229L5.84461 29.2852C5.81079 29.3359 5.81079 29.3993 5.84461 29.45L6.3054 30.1433C6.36881 30.2406 6.30117 30.3716 6.1828 30.3716H5.69665V30.3674ZM6.67741 28.4946H7.17625C7.25657 28.4946 7.31998 28.558 7.31998 28.6384V28.8201C7.31998 28.9005 7.3834 28.9639 7.46372 28.9639H7.58631C7.74273 28.9639 7.88223 28.9892 8.00906 29.0442C8.13588 29.0992 8.23311 29.1795 8.3092 29.2852C8.38107 29.3908 8.41912 29.5177 8.41912 29.6656C8.41912 29.8136 8.38107 29.9404 8.3092 30.0461C8.23734 30.1518 8.13588 30.2321 8.00906 30.2871C7.88223 30.342 7.74273 30.3674 7.58631 30.3674H6.81692C6.7366 30.3674 6.67319 30.304 6.67319 30.2237V28.4946H6.67741ZM8.6009 28.4946H9.09974C9.18006 28.4946 9.24347 28.558 9.24347 28.6384V30.2194C9.24347 30.2997 9.18006 30.3632 9.09974 30.3632H8.74463C8.66431 30.3632 8.6009 30.2997 8.6009 30.2194V28.4946ZM7.58209 29.8263C7.70891 29.8263 7.76809 29.7755 7.76809 29.6741C7.76809 29.5726 7.75118 29.5769 7.71736 29.5473C7.68354 29.5177 7.63704 29.505 7.58209 29.505H7.46794C7.38762 29.505 7.32421 29.5684 7.32421 29.6487V29.6783C7.32421 29.7586 7.38762 29.822 7.46794 29.822H7.58209V29.8263ZM11.4882 28.6384V30.2194C11.4882 30.2997 11.4248 30.3632 11.3445 30.3632H10.9936C10.9133 30.3632 10.8499 30.2997 10.8499 30.2194V29.1795C10.8499 29.0992 10.7865 29.0357 10.7062 29.0357H10.4652V29.1203C10.461 29.4373 10.4356 29.691 10.3891 29.877C10.3426 30.063 10.2707 30.2025 10.1735 30.2871C10.0763 30.3716 9.94522 30.4181 9.78458 30.4181C9.62394 30.4181 9.6958 30.4181 9.6493 30.4012C9.58166 30.3885 9.53516 30.3251 9.53516 30.2575V29.8432C9.55207 29.8432 9.57321 29.8516 9.60703 29.8516C9.67044 29.8516 9.72117 29.822 9.75922 29.7713C9.79726 29.7164 9.82263 29.6234 9.84376 29.4881C9.86067 29.3528 9.86913 29.1626 9.86913 28.9216V28.6468C9.86913 28.5665 9.93254 28.5031 10.0129 28.5031H11.3487C11.4206 28.4946 11.4882 28.558 11.4882 28.6384Z" fill="#FED301"/>
</svg>
